<svg width="18" height="19" viewBox="0 0 18 19" fill="none" xmlns="http://www.w3.org/2000/svg" data-v-15cdcdd2=""><path d="M15.75 7.39917L15.75 2.89917M15.75 2.89917H11.25M15.75 2.89917L9.75 8.89917M7.5 4.39917H5.85C4.58988 4.39917 3.95982 4.39917 3.47852 4.64441C3.05516 4.86012 2.71095 5.20433 2.49524 5.62769C2.25 6.10899 2.25 6.73905 2.25 7.99917V12.7992C2.25 14.0593 2.25 14.6893 2.49524 15.1706C2.71095 15.594 3.05516 15.9382 3.47852 16.1539C3.95982 16.3992 4.58988 16.3992 5.85 16.3992H10.65C11.9101 16.3992 12.5402 16.3992 13.0215 16.1539C13.4448 15.9382 13.789 15.594 14.0048 15.1706C14.25 14.6893 14.25 14.0593 14.25 12.7992V11.1492" stroke="currentColor" stroke-width="2" stroke-linecap="round" stroke-linejoin="round"></path></svg>